<?xml version="1.0"?>
<svg width="24" height="24" xmlns="http://www.w3.org/2000/svg" xmlns:svg="http://www.w3.org/2000/svg">
 <g class="layer">
  <title>Layer 1</title>
  <path clip-rule="evenodd" d="m12,22c5.52,0 10,-4.48 10,-10s-4.48,-10 -10,-10s-10,4.48 -10,10s4.48,10 10,10zm-1.5,-5.01c0,-0.87 0.66,-1.49 1.49,-1.49c0.85,0 1.51,0.62 1.51,1.49c0,0.87 -0.66,1.51 -1.51,1.51c-0.83,0 -1.49,-0.64 -1.49,-1.51zm0.67,-10.99a0.5,0.5 0 0 0 -0.5,0.52l0.31,7a0.5,0.5 0 0 0 0.5,0.48l1.04,0a0.5,0.5 0 0 0 0.5,-0.48l0.31,-7a0.5,0.5 0 0 0 -0.5,-0.52l-1.66,0z" fill="#ff0000" fill-rule="evenodd" id="svg_1"/>
 </g>
</svg>