<svg width="247" height="28" viewBox="0 0 247 28" fill="none" xmlns="http://www.w3.org/2000/svg">
<path d="M187 26V0.5H247L241.5 7H232V26H223V7H195.5V10H212.5V16.5H195.5V19.5H212.5V26H187Z" fill="white"/>
<path d="M156 26L162 19.5L170.66 19.1536C172.805 19.0678 174.5 17.3037 174.5 15.1568V0.5H183V16.6651C183 21.5707 179.071 25.5728 174.167 25.6636L156 26Z" fill="white"/>
<path d="M187 26V0.5H247L241.5 7H232V26H223V7H195.5V10H212.5V16.5H195.5V19.5H212.5V26H187Z" stroke="black"/>
<path d="M156 26L162 19.5L170.66 19.1536C172.805 19.0678 174.5 17.3037 174.5 15.1568V0.5H183V16.6651C183 21.5707 179.071 25.5728 174.167 25.6636L156 26Z" stroke="black"/>
<path d="M99.4999 7V0H84.0097C80.3924 0 76.6959 0.699692 73.8047 2.87348C70.5984 5.28412 69.36 7.81949 69 12.5C69 16.7351 70.446 20.1401 73.6169 23.0662C76.4956 25.7224 80.5645 26.4508 84.4804 26.3576L99.4999 26V19H83.3152C80.1035 19 77.4999 16.3964 77.4999 13.1847C77.4999 10.0244 80.0237 7.44264 83.1831 7.37084L99.4999 7Z" fill="url(#paint0_linear_2335_15)"/>
<path d="M103.5 26V0H112V10.5L125.5 0.5H137L119.5 12.5L138 26H125.5L112 15V26H103.5Z" fill="url(#paint1_linear_2335_15)"/>
<path d="M157.5 0.5H168L152 17.5V26H143.5V17.5L132.5 6.5L139 2L148 11.5L157.5 0.5Z" fill="url(#paint2_linear_2335_15)"/>
<path d="M37.5 16.6585V0.5H29V16.5674C29 18.4821 29.4787 20.421 30.7733 21.8317C32.5262 23.7416 34.5877 24.9311 37.5 26C45.0961 27.3833 49.1379 27.3475 56 26C59.1079 25.1335 60.9728 23.9858 62.6155 22.091C63.9873 20.5087 64.5 18.3875 64.5 16.2933V0.5H56V15.7027C56 17.8311 54.3334 19.5929 52.2066 19.6738C47.953 19.8358 44.6426 19.8265 40.3396 19.6399C38.7475 19.5709 37.5 18.2522 37.5 16.6585Z" fill="url(#paint3_linear_2335_15)"/>
<path d="M0 26V0.5H8.5V19H24.5L30 26H0Z" fill="url(#paint4_linear_2335_15)"/>
<path d="M99.4999 7V0H84.0097C80.3924 0 76.6959 0.699692 73.8047 2.87348C70.5984 5.28412 69.36 7.81949 69 12.5C69 16.7351 70.446 20.1401 73.6169 23.0662C76.4956 25.7224 80.5645 26.4508 84.4804 26.3576L99.4999 26V19H83.3152C80.1035 19 77.4999 16.3964 77.4999 13.1847C77.4999 10.0244 80.0237 7.44264 83.1831 7.37084L99.4999 7Z" stroke="black" stroke-opacity="0.06"/>
<path d="M103.5 26V0H112V10.5L125.5 0.5H137L119.5 12.5L138 26H125.5L112 15V26H103.5Z" stroke="black" stroke-opacity="0.06"/>
<path d="M157.5 0.5H168L152 17.5V26H143.5V17.5L132.5 6.5L139 2L148 11.5L157.5 0.5Z" stroke="black" stroke-opacity="0.06"/>
<path d="M37.5 16.6585V0.5H29V16.5674C29 18.4821 29.4787 20.421 30.7733 21.8317C32.5262 23.7416 34.5877 24.9311 37.5 26C45.0961 27.3833 49.1379 27.3475 56 26C59.1079 25.1335 60.9728 23.9858 62.6155 22.091C63.9873 20.5087 64.5 18.3875 64.5 16.2933V0.5H56V15.7027C56 17.8311 54.3334 19.5929 52.2066 19.6738C47.953 19.8358 44.6426 19.8265 40.3396 19.6399C38.7475 19.5709 37.5 18.2522 37.5 16.6585Z" stroke="black" stroke-opacity="0.06"/>
<path d="M0 26V0.5H8.5V19H24.5L30 26H0Z" stroke="black" stroke-opacity="0.06"/>
<defs>
<linearGradient id="paint0_linear_2335_15" x1="0" y1="13.512" x2="168" y2="13.512" gradientUnits="userSpaceOnUse">
<stop stop-color="#8525F8"/>
<stop offset="1" stop-color="#B12CF3"/>
</linearGradient>
<linearGradient id="paint1_linear_2335_15" x1="0" y1="13.512" x2="168" y2="13.512" gradientUnits="userSpaceOnUse">
<stop stop-color="#8525F8"/>
<stop offset="1" stop-color="#B12CF3"/>
</linearGradient>
<linearGradient id="paint2_linear_2335_15" x1="0" y1="13.512" x2="168" y2="13.512" gradientUnits="userSpaceOnUse">
<stop stop-color="#8525F8"/>
<stop offset="1" stop-color="#B12CF3"/>
</linearGradient>
<linearGradient id="paint3_linear_2335_15" x1="0" y1="13.512" x2="168" y2="13.512" gradientUnits="userSpaceOnUse">
<stop stop-color="#8525F8"/>
<stop offset="1" stop-color="#B12CF3"/>
</linearGradient>
<linearGradient id="paint4_linear_2335_15" x1="0" y1="13.512" x2="168" y2="13.512" gradientUnits="userSpaceOnUse">
<stop stop-color="#8525F8"/>
<stop offset="1" stop-color="#B12CF3"/>
</linearGradient>
</defs>
</svg>
